HIERARCHY
ROOT Hips
{
	OFFSET 0.000000 0.000000 0.000000 
	CHANNELS 6 Xposition Yposition Zposition Zrotation Yrotation Xrotation
	JOINT LeftUpLeg
	{
		OFFSET 1.363060 -1.794630 0.839290 
		CHANNELS 3 Zrotation Yrotation Xrotation
		JOINT LeftLeg
		{
			OFFSET 2.448110 -6.726130 0.000000 
			CHANNELS 3 Zrotation Yrotation Xrotation
			JOINT LeftFoot
			{
				OFFSET 2.562200 -7.039590 0.000000 
				CHANNELS 3 Zrotation Yrotation Xrotation
				JOINT LeftToeBase
				{
					OFFSET 0.157640 -0.433110 2.322550 
					CHANNELS 3 Zrotation Yrotation Xrotation
					End Site
					{
						OFFSET 0.000000 0.000000 0.000000 
					}
				}
			}
		}
	}
	JOINT RightUpLeg
	{
		OFFSET -1.305520 -1.794630 0.839290 
		CHANNELS 3 Zrotation Yrotation Xrotation
		JOINT RightLeg
		{
			OFFSET -2.542530 -6.985550 0.000000 
			CHANNELS 3 Zrotation Yrotation Xrotation
			JOINT RightFoot
			{
				OFFSET -2.568260 -7.056230 0.000000 
				CHANNELS 3 Zrotation Yrotation Xrotation
				JOINT RightToeBase
				{
					OFFSET -0.164730 -0.452590 2.363150 
					CHANNELS 3 Zrotation Yrotation Xrotation
					End Site
					{
						OFFSET 0.000000 0.000000 0.000000 
					}
				}
			}
		}
	}
	JOINT Spine
	{
		OFFSET 0.028270 2.035590 -0.193380 
		CHANNELS 3 Zrotation Yrotation Xrotation
		JOINT Spine1
		{
			OFFSET 0.056720 2.048850 -0.042750 
			CHANNELS 3 Zrotation Yrotation Xrotation
			JOINT Neck1
			{
				OFFSET -0.054170 1.746240 0.172020 
				CHANNELS 3 Zrotation Yrotation Xrotation
				JOINT Head
				{
					OFFSET 0.104070 1.761360 -0.123970 
					CHANNELS 3 Zrotation Yrotation Xrotation
					End Site
					{
						OFFSET 0.000000 0.000000 0.000000 
					}
				}
			}
			JOINT LeftArm
			{
				OFFSET 3.362410 1.200890 -0.311210 
				CHANNELS 3 Zrotation Yrotation Xrotation
				JOINT LeftForeArm
				{
					OFFSET 4.983000 -0.000000 -0.000000 
					CHANNELS 3 Zrotation Yrotation Xrotation
					JOINT LeftHand
					{
						OFFSET 3.483560 -0.000000 -0.000000 
						CHANNELS 3 Zrotation Yrotation Xrotation
						JOINT LeftHandIndex1
						{
							OFFSET 0.715260 -0.000000 -0.000000 
							CHANNELS 3 Zrotation Yrotation Xrotation
							End Site
							{
								OFFSET 0.000000 0.000000 0.000000 
							}
						}
					}
				}
			}
			JOINT RightArm
			{
				OFFSET -3.136600 1.374050 -0.404650 
				CHANNELS 3 Zrotation Yrotation Xrotation
				JOINT RightForeArm
				{
					OFFSET -5.241900 -0.000000 -0.000000 
					CHANNELS 3 Zrotation Yrotation Xrotation
					JOINT RightHand
					{
						OFFSET -3.444170 -0.000000 -0.000000 
						CHANNELS 3 Zrotation Yrotation Xrotation
						JOINT RightHandIndex1
						{
							OFFSET -0.622530 -0.000000 -0.000000 
							CHANNELS 3 Zrotation Yrotation Xrotation
							End Site
							{
								OFFSET 0.000000 0.000000 0.000000 
							}
						}
					}
				}
			}
		}
	}
}
MOTION
Frames: 13
Frame Time: 0.041667
4.978465 16.581988 2.247039 -8.048404 -10.581373 9.119318 -22.158989 -7.174540 -32.689612 6.803838 16.408631 50.561837 1.052420 -0.150231 -13.739422 0.375900 3.938000 10.902200 1.926357 24.388704 -112.919498 -26.034275 -21.469011 103.127814 -9.014434 -11.511691 58.984656 -0.044500 1.361000 -3.742700 5.135397 0.260993 13.646542 -0.934908 1.427457 -12.667970 -1.016545 -0.297699 31.052314 -0.449000 -0.635200 15.475100 -37.825084 24.507242 -2.881497 17.187464 -19.768181 -3.436008 1.681890 -0.021814 -10.989809 -7.125000 0.000000 0.000000 45.347213 -36.853371 -8.139853 -25.576831 24.311003 -6.283006 -0.032465 -2.891473 6.012545 7.125000 0.000000 0.000000 
4.976938 16.585449 2.247140 -8.094814 -10.779912 9.050307 -22.133682 -7.112326 -32.562622 6.794065 16.393852 50.529388 1.027563 0.017307 -13.889490 0.357000 3.838600 10.623000 2.044824 24.654370 -112.695771 -25.944156 -21.474840 102.863389 -8.977932 -11.768396 58.896281 -0.046100 1.385600 -3.810400 5.157117 0.331321 13.646479 -0.920454 1.464707 -12.727509 -0.979423 -0.267210 31.016152 -0.419800 -0.624200 15.438800 -37.564068 24.778124 -3.220203 17.061523 -19.638670 -3.405088 1.688114 -0.028758 -10.528234 -7.125000 0.000000 0.000000 45.042208 -36.843157 -8.365214 -25.317199 24.069874 -6.196117 -0.051552 -2.905081 6.232553 7.125000 0.000000 0.000000 
4.975818 16.587587 2.246529 -8.210670 -10.881118 9.042512 -22.010831 -7.128474 -32.505913 6.781236 16.384110 50.490692 0.990885 0.209707 -13.970457 0.412800 4.124400 11.427000 2.213353 24.824218 -112.567390 -25.896597 -21.479835 102.698661 -8.937317 -12.236653 58.819386 -0.029800 1.114800 -3.064600 5.142287 0.366707 13.738399 -0.982904 1.476355 -12.667820 -0.857243 -0.299622 30.921883 -0.366200 -0.625100 15.416800 -37.237434 24.903640 -3.697223 16.733783 -19.231873 -3.302906 1.692243 -0.044686 -9.929181 -7.125000 0.000000 0.000000 44.880220 -36.834969 -8.394577 -25.141996 23.887970 -6.134037 -0.051713 -2.914253 6.088348 7.125000 0.000000 0.000000 
4.975513 16.587791 2.247955 -8.225703 -10.901049 9.061400 -21.989214 -7.238040 -32.456685 6.764868 16.371930 50.441190 0.954780 0.361600 -13.956886 0.575800 4.859200 13.507400 2.238414 24.838458 -112.562101 -25.881053 -21.484334 102.647554 -8.919092 -12.333048 58.776071 -0.016500 0.830400 -2.282100 5.052068 0.341994 13.805943 -1.037409 1.453886 -12.594241 -0.884557 -0.294482 30.912785 -0.394400 -0.614900 15.443100 -36.984956 25.216971 -4.057468 16.601948 -19.028479 -3.185991 1.672672 -0.011883 -9.720315 -7.125000 0.000000 0.000000 44.714822 -36.749459 -8.498237 -24.927017 23.670155 -6.061260 -0.080991 -2.925592 6.202176 7.125000 0.000000 0.000000 
4.977141 16.589725 2.249278 -8.136384 -10.947641 9.083684 -22.088361 -7.403829 -32.388953 6.741216 16.352653 50.370758 0.910557 0.550144 -13.952090 0.678600 5.267400 14.672800 2.144387 24.813481 -112.587912 -25.866204 -21.488318 102.593408 -8.917062 -12.472218 58.782198 -0.005800 0.492900 -1.354400 4.941772 0.317398 13.774358 -1.047287 1.431843 -12.602101 -0.968365 -0.238365 30.981460 -0.436600 -0.594800 15.478000 -36.750640 25.687256 -4.032346 16.632392 -19.043729 -3.127716 1.650142 0.031130 -9.851933 -7.125000 0.000000 0.000000 44.478093 -36.602243 -8.884177 -24.633697 23.395956 -5.966516 -0.109199 -2.936805 6.748912 7.125000 0.000000 0.000000 
4.979992 16.594713 2.249176 -8.074733 -10.971617 9.137387 -22.145619 -7.613968 -32.346992 6.712553 16.331146 50.281655 0.871646 0.696797 -13.895552 0.719800 5.421600 15.115100 2.089405 24.782225 -112.577690 -25.832758 -21.499118 102.469675 -8.899658 -12.825821 58.763865 -0.001200 0.227000 -0.623800 4.868892 0.332220 13.673745 -1.074795 1.427470 -12.674084 -1.031737 -0.247653 31.046147 -0.470300 -0.603400 15.508800 -36.370322 25.888462 -4.125141 16.382431 -18.743584 -3.049402 1.651370 0.032319 -9.384650 -7.125000 0.000000 0.000000 44.243025 -36.716914 -8.946501 -24.469160 23.241405 -5.920115 -0.094069 -2.945789 6.821555 7.125000 0.000000 0.000000 
4.982232 16.597666 2.252536 -7.942484 -11.048427 9.159431 -22.281330 -7.768527 -32.271536 6.679843 16.303964 50.179055 0.832437 0.853170 -13.863350 0.743800 5.509200 15.366800 1.983568 24.772563 -112.570231 -25.785039 -21.509425 102.335748 -8.890811 -12.806988 58.734323 -0.002500 0.321000 -0.882100 4.710721 0.363065 13.550621 -1.091281 1.426547 -12.778003 -0.934036 -0.333875 31.145204 -0.429400 -0.635100 15.545800 -35.923304 26.076098 -4.235657 16.064101 -18.359925 -2.958625 1.655965 0.023657 -8.780284 -7.125000 0.000000 0.000000 44.028481 -36.955333 -8.840737 -24.382510 23.168497 -5.912638 -0.090409 -2.954265 6.821116 7.125000 0.000000 0.000000 
4.981417 16.599600 2.254368 -7.814593 -11.142494 9.143617 -22.409872 -7.858983 -32.171722 6.644369 16.272698 50.065938 0.790476 1.022213 -13.833454 0.739000 5.491700 15.316400 1.921701 24.804534 -112.537410 -25.724453 -21.520333 102.188000 -8.905899 -12.515012 58.746615 -0.008400 0.591900 -1.626500 4.544180 0.347333 13.451491 -1.080268 1.406762 -12.870926 -0.684134 -0.391324 31.256332 -0.304900 -0.647700 15.570400 -35.568562 26.567631 -4.226857 15.989426 -18.288313 -2.934259 1.659566 0.018310 -8.556512 -7.125000 0.000000 0.000000 43.811204 -37.074823 -8.812384 -24.288269 23.098976 -5.903220 -0.123735 -2.962655 7.127761 7.125000 0.000000 0.000000 
4.979279 16.604181 2.255183 -7.761093 -11.161664 9.094599 -22.460036 -7.999370 -32.007826 6.603756 16.232369 49.929759 0.747140 1.195158 -13.797167 0.741200 5.499900 15.340000 1.988101 24.813968 -112.384908 -25.653526 -21.539179 101.993112 -8.882419 -12.450652 58.669068 -0.011900 0.704300 -1.935400 4.478860 0.300671 13.476517 -1.063898 1.383984 -12.855441 -0.542087 -0.384006 31.220287 -0.224000 -0.641500 15.523600 -35.366256 27.047538 -4.486441 15.917615 -18.232143 -2.925984 1.668260 0.011689 -8.326161 -7.125000 0.000000 0.000000 43.535216 -37.133891 -8.667322 -24.243052 23.071572 -5.894333 -0.130903 -2.970481 7.012877 7.125000 0.000000 0.000000 
4.980196 16.610391 2.260884 -7.648896 -11.211800 9.020201 -22.600062 -8.199938 -31.764150 6.553869 16.180472 49.765690 0.688923 1.472796 -13.879087 0.721200 5.426600 15.129400 1.980960 24.781551 -112.230101 -25.603399 -21.553856 101.853777 -8.839973 -12.424796 58.541389 -0.015700 0.810200 -2.226800 4.368698 0.301254 13.666835 -1.068659 1.385891 -12.690362 -0.519199 -0.385619 30.996068 -0.207800 -0.642200 15.420000 -35.250997 27.326140 -4.782054 15.899113 -18.230937 -2.918761 1.668467 0.028805 -8.301379 -7.125000 0.000000 0.000000 43.367948 -37.216126 -8.638940 -24.152511 22.972884 -5.863235 -0.132962 -2.979970 6.636113 7.125000 0.000000 0.000000 
4.984980 16.616907 2.269537 -7.425347 -11.329984 8.979908 -22.875744 -8.391455 -31.558981 6.496643 16.125700 49.581927 0.632310 1.751210 -13.988540 0.687500 5.301000 14.769100 1.796999 24.707287 -112.204686 -25.599670 -21.555608 101.837399 -8.804850 -12.481727 58.445030 -0.021400 0.944600 -2.596300 4.147556 0.330056 13.841347 -1.082229 1.393121 -12.526948 -0.439781 -0.439311 30.774614 -0.171300 -0.659800 15.337000 -35.081060 27.499688 -5.048675 15.943149 -18.285870 -2.893285 1.653346 0.058833 -8.409379 -7.125000 0.000000 0.000000 43.319119 -37.400627 -8.643150 -24.071998 22.867993 -5.834970 -0.146583 -2.988828 6.459023 7.125000 0.000000 0.000000 
4.988035 16.624339 2.278394 -7.226279 -11.431701 8.972135 -23.111913 -8.575146 -31.389644 6.435801 16.070066 49.384040 0.572893 2.014045 -14.025149 0.681100 5.276600 14.699300 1.629827 24.634594 -112.205899 -25.618346 -21.552792 101.855570 -8.756244 -12.902421 58.347141 -0.022200 0.962800 -2.646600 3.961769 0.323664 13.974580 -1.070047 1.385912 -12.389354 -0.433382 -0.443250 30.648804 -0.165000 -0.664200 15.304700 -34.834916 27.716473 -5.184027 15.902778 -18.234576 -2.856116 1.644546 0.076167 -8.639255 -7.125000 0.000000 0.000000 43.221062 -37.462146 -8.718428 -23.972507 22.768657 -5.812998 -0.147694 -2.994592 6.505966 7.125000 0.000000 0.000000 
4.988645 16.631770 2.282772 -7.126653 -11.458287 8.950903 -23.225077 -8.772982 -31.210810 6.383927 16.020657 49.211640 0.519988 2.238854 -14.034086 0.718400 5.416500 15.100300 1.591364 24.571046 -112.134332 -25.603972 -21.559387 101.841806 -8.757618 -12.544463 58.314030 -0.027500 1.070700 -2.943300 3.873094 0.298128 14.110654 -1.055156 1.373245 -12.293081 -0.600701 -0.343817 30.592660 -0.245100 -0.629400 15.319500 -34.548710 28.010952 -4.964098 15.854351 -18.192349 -2.862511 1.657712 0.071023 -9.147910 -7.125000 0.000000 0.000000 43.142270 -37.329202 -9.058593 -23.818744 22.630541 -5.771648 -0.127651 -2.996345 6.711970 7.125000 0.000000 0.000000 
